<?xml version="1.0" standalone="no"?><!DOCTYPE svg PUBLIC "-//W3C//DTD SVG 1.1//EN" "http://www.w3.org/Graphics/SVG/1.1/DTD/svg11.dtd"><svg t="1773641870427" class="icon" viewBox="0 0 1527 1024" version="1.1" xmlns="http://www.w3.org/2000/svg" p-id="10416" xmlns:xlink="http://www.w3.org/1999/xlink" width="381.75" height="256"><path d="M304.803994 382.902828m-47.139498 0a47.139498 47.139498 0 1 0 94.278996 0 47.139498 47.139498 0 1 0-94.278996 0Z" p-id="10417"></path><path d="M663.064178 382.902828m-47.139498 0a47.139498 47.139498 0 1 0 94.278996 0 47.139498 47.139498 0 1 0-94.278996 0Z" p-id="10418"></path><path d="M1515.723416 335.669051c-13.387617-16.687382-37.711598-23.47547-65.995297-18.855799a258.23017 258.23017 0 0 0-105.781033 48.082288c-1.225627 0.94279-124.353996 97.484482-161.971315 285.665357-34.69467 173.284794-217.407364 173.944747-237.111675 173.473353a263.981188 263.981188 0 0 0 4.808229-102.952664L896.121856 370.740838a262.84984 262.84984 0 0 0-129.63362-188.557992 4.525392 4.525392 0 0 0 0-3.676881L692.196388 17.006045A33.186207 33.186207 0 0 0 663.158457 0.224384a32.997649 32.997649 0 0 0-29.037931 16.781661l-74.19757 128.502272a4.525392 4.525392 0 0 0-0.565674 1.697022h-150.846393a4.525392 4.525392 0 0 0-0.565674-1.697022L333.747645 17.006045a33.374765 33.374765 0 0 0-58.17014 0l-74.103291 161.217083a3.016928 3.016928 0 0 0 0 1.319906A262.755561 262.755561 0 0 0 68.446551 363.00996L4.336834 713.444988a263.321235 263.321235 0 0 0 258.890122 310.555012h426.046783c21.872727-1.037069 127.465202-8.202273 199.588634-91.733463 4.525392-5.279624 8.767947-10.559248 12.633385-15.838871 208.073744-14.330407 275.577505-102.009874 354.866141-234.189026 50.344984-83.814027 128.502271-151.977741 185.635343-201.757051 41.011363-35.826018 70.709247-61.658463 78.722961-81.73989 9.616458-24.135423 7.825157-47.139498-4.996787-63.072648zM642.322799 21.719995A23.852586 23.852586 0 0 1 663.158457 9.652284a23.758307 23.758307 0 0 1 20.6471 11.690595l71.086363 154.240437a262.567003 262.567003 0 0 0-118.980093-28.283698h-65.995297z m-358.260184 0a24.135423 24.135423 0 0 1 41.765595 0l72.406268 125.485344h-70.709246a262.001329 262.001329 0 0 0-113.134795 25.455328z m-156.88025 953.160648c12.539106-17.724451 77.308777-103.706895 156.220297-99.087224 55.530329 3.205486 106.535265 49.873589 151.789183 138.778681H263.226956a252.57343 252.57343 0 0 1-136.044591-39.691457z m393.991924 39.691457c45.253918-88.905093 96.258855-135.573196 151.789183-138.778681 75.423197-4.242555 138.495845 74.668965 154.428996 96.63597a295.093257 295.093257 0 0 1-138.118729 42.142711z m360.52288-88.433698a234.283305 234.283305 0 0 1-46.385266 41.105642c-16.310266-23.098354-80.985657-105.498196-162.914105-100.878525-59.961441 3.394044-114.360422 53.267633-161.782756 148.018023h-65.052508c-47.139498-94.278996-101.821316-144.62398-161.782756-148.018023-84.851096-4.996787-151.883462 84.851096-164.705406 103.706895a258.135891 258.135891 0 0 1-50.910658-46.479545 253.139104 253.139104 0 0 1-54.681818-208.168022l64.203997-350.717865a253.610499 253.610499 0 0 1 249.650781-208.073744h308.575153a252.196314 252.196314 0 0 1 250.876408 215.521785l53.361912 350.435027a255.307521 255.307521 0 0 1-5.65674 103.706896 261.247098 261.247098 0 0 1-52.796238 99.841456z m630.255088-530.885025c-7.165204 17.913009-37.711598 44.499686-76.177429 78.157287-57.604466 50.156426-136.421707 118.885814-187.426644 204.019747-79.100078 131.990594-141.984168 213.447647-339.404385 228.909402a272.654856 272.654856 0 0 0 33.84616-72.877664c2.074138 0 210.524998 9.4279 248.613712-181.015672 36.863087-184.503995 157.257365-279.065828 158.577271-280.008617a253.044825 253.044825 0 0 1 101.538478-46.196708c25.172492-4.148276 46.00815 1.414185 57.32163 15.367476s11.502037 32.714812 3.111207 53.644749z" p-id="10419"></path><path d="M561.525699 468.413877a4.525392 4.525392 0 0 0-6.410971 1.508464S542.481342 490.475162 527.962377 489.626651c-7.825157 0-15.273197-6.59953-22.249843-18.855799A57.510187 57.510187 0 0 0 490.250778 450.595147a23.381191 23.381191 0 0 0-13.670454-4.902508 26.869514 26.869514 0 0 0-14.707523 5.562461 59.961441 59.961441 0 0 0-14.801803 18.855799c-7.070925 12.727664-14.613244 18.855799-22.53268 19.421473-14.141849 0-26.30384-19.515752-26.492398-19.70431a4.525392 4.525392 0 0 0-6.410971-1.508464 4.619671 4.619671 0 0 0-1.602743 6.410972c0.659953 1.037069 15.084639 24.229702 34.506112 24.229702H424.255481c11.502037 0 21.872727-8.48511 30.640674-24.41826a50.062147 50.062147 0 0 1 13.764733-16.970219 13.764733 13.764733 0 0 1 7.165204-2.545533h0.565674a13.010501 13.010501 0 0 1 6.505251 2.168417 47.139498 47.139498 0 0 1 14.330407 17.347335c8.862226 15.93315 18.855799 24.135423 30.640674 24.41826 19.515752 0.565674 34.411833-23.192633 35.071786-24.229702a4.619671 4.619671 0 0 0-1.414185-6.316693z" p-id="10420"></path></svg>