<?xml version="1.0" standalone="no"?><!DOCTYPE svg PUBLIC "-//W3C//DTD SVG 1.1//EN" "http://www.w3.org/Graphics/SVG/1.1/DTD/svg11.dtd"><svg t="1773641827274" class="icon" viewBox="0 0 1527 1024" version="1.1" xmlns="http://www.w3.org/2000/svg" p-id="10131" width="381.75" height="256" xmlns:xlink="http://www.w3.org/1999/xlink"><path d="M263.225769 1019.286071a257.85189 257.85189 0 0 1-131.518606-35.920135c16.687307-22.721135 74.291514-93.618621 143.680542-93.61862h5.750992c52.230328 3.016914 100.783792 46.479335 144.340492 129.350198z" p-id="10132"></path><path d="M275.387705 894.461244h5.562435c48.930578 2.828357 94.938521 43.085307 136.703927 119.922342H263.225769a253.420798 253.420798 0 0 1-124.541992-32.620386c19.609943-25.643771 73.348728-87.490513 136.703928-87.490513m0-9.427857c-76.742756 0-138.966613 83.342256-150.845713 99.746728a262.000147 262.000147 0 0 0 138.306663 39.219885h169.701427c-45.253714-88.904692-96.258421-135.572584-151.788499-138.778056h-6.033828zM528.902781 1019.286071c43.5567-82.870863 92.110163-126.333285 144.340491-129.350198H678.805708c67.974849 0 125.579056 69.294749 142.45492 91.733049a306.68819 306.68819 0 0 1-131.989999 37.711428z" p-id="10133"></path><path d="M678.805708 894.555523c62.035299 0 115.585527 60.055449 135.384027 85.510663a303.482719 303.482719 0 0 1-124.919106 34.505957H536.822181c41.671128-76.837035 87.679071-117.093985 136.609648-119.922342H678.805708m0-9.427857h-5.845272c-55.530078 3.205471-106.534785 49.873364-151.788498 138.778056h168.098691a307.913811 307.913811 0 0 0 138.872335-41.105457c-14.330343-19.987057-75.422856-97.766878-149.337256-97.766877z" p-id="10134"></path><path d="M446.786146 1019.286071c-47.987792-94.844242-103.706428-144.717606-164.516106-148.111634h-7.25945c-79.853949 0-141.983527 78.156935-159.236505 102.197971A258.888955 258.888955 0 0 1 8.956464 714.294896l64.109428-350.433447A257.569055 257.569055 0 0 1 203.453155 184.072215l1.3199-0.754228 1.037064-1.602736 74.008678-162.25342a28.283571 28.283571 0 0 1 49.873364 0l74.197235 129.350199 1.131343 3.016914h157.63377l1.414178-3.111193 74.102957-129.25592a28.283571 28.283571 0 0 1 49.873364 0l74.102956 161.970584v3.111193l2.734079 1.602736a257.286219 257.286219 0 0 1 126.61612 185.351669l53.267392 349.962054a260.114576 260.114576 0 0 1-4.61965 101.160906l-1.414178 5.750993h9.427857c33.846007 0 204.301662-8.485071 238.147669-177.243712 37.145757-186.105898 158.95367-281.892926 160.27357-282.835712a252.478012 252.478012 0 0 1 103.706427-47.139285 98.89822 98.89822 0 0 1 16.404472-1.414179 56.001471 56.001471 0 0 1 45.253714 18.855714c11.784821 14.5189 13.293278 35.825857 4.336814 58.358435-7.636564 18.855714-36.9572 44.499485-77.496985 79.85395-57.321371 50.061921-135.85542 118.508163-186.483013 202.981762-78.534049 130.952934-145.377556 217.783498-351.093396 231.925284h-2.262686l-1.225621 1.791292c-4.053979 5.468157-8.202236 10.747757-12.444772 15.650243a242.578762 242.578762 0 0 1-47.893514 42.142521c-20.364171-28.283571-80.702456-100.500956-158.293719-100.500956h-6.882336c-61.281071 3.394029-116.622592 53.267392-164.610384 148.111634z m-53.361671-556.243566a9.427857 9.427857 0 0 0-4.996764 1.414179 9.427857 9.427857 0 0 0-3.016915 12.916164c0.65995 1.131343 16.404471 26.492278 38.465657 26.492278 14.047507 0 25.643771-9.427857 35.354464-26.869392a45.913664 45.913664 0 0 1 12.256214-15.367407 10.276364 10.276364 0 0 1 4.61965-1.697014 10.276364 10.276364 0 0 1 4.148257 1.414178 42.425357 42.425357 0 0 1 12.821886 15.650243c9.427857 17.535814 21.306957 26.586557 34.600235 26.869392 22.4383 0 37.711428-23.7582 39.125607-26.492278a9.427857 9.427857 0 0 0-3.111193-12.916164 8.767907 8.767907 0 0 0-4.902485-1.414179 9.427857 9.427857 0 0 0-8.013679 4.525372c-3.016914 4.808207-12.916164 17.441536-22.4383 17.441535-7.730843 0-14.330343-9.427857-18.855714-16.593028a62.412414 62.412414 0 0 0-17.535814-21.684071 27.435064 27.435064 0 0 0-16.310193-5.656715 27.7179 27.7179 0 0 0-17.441535 6.505222 62.035299 62.035299 0 0 0-16.310193 20.647007c-4.148257 7.448007-10.747757 16.593028-18.384321 16.781585-9.993528 0-19.704221-12.53905-22.721136-17.441535a9.427857 9.427857 0 0 0-7.353728-4.61965z m269.636712-131.989998a51.853214 51.853214 0 1 0 51.853213 51.853213 51.853214 51.853214 0 0 0-51.853213-51.853213z m-358.258568 0a51.853214 51.853214 0 1 0 51.853213 51.853213 51.853214 51.853214 0 0 0-51.853213-51.853213z" p-id="10135"></path><path d="M663.155465 9.65686a23.852478 23.852478 0 0 1 20.364171 11.784821l73.348728 160.27357-0.65995 5.091043 5.562436 3.205471A252.478012 252.478012 0 0 1 886.784234 372.629356l53.361671 350.433447a256.154876 256.154876 0 0 1-4.61965 99.275335l-2.828357 11.407707h15.555964c34.505957 0 208.261362-8.673628 242.767319-181.109134 36.674364-183.654655 157.256656-279.064569 158.670835-280.101633a247.669805 247.669805 0 0 1 101.443742-46.102221 90.695985 90.695985 0 0 1 15.650242-1.3199 52.041771 52.041771 0 0 1 41.671128 16.687307c10.5592 13.199 11.8791 32.714664 3.488308 53.644506-7.165171 17.912928-37.711428 44.499485-76.177085 78.156935-57.604207 49.873364-136.421092 118.69672-187.425799 203.83027-77.779821 129.633034-143.963377 215.615091-347.510811 229.568319h-4.336814l-2.6398 3.582586c-3.865421 5.373879-8.013678 10.464921-12.161935 15.273128a236.827769 236.827769 0 0 1-43.179586 38.842771c-23.003971-30.3577-82.870863-98.521106-159.425062-98.521106h-7.165172c-62.506692 3.771143-118.69672 53.267392-167.53302 148.39447h-54.775849c-48.364907-94.278571-104.649213-144.623327-167.061627-148.111634h-7.542286c-78.251214 0-139.532284 72.405942-160.27357 100.312399A253.797912 253.797912 0 0 1 14.141786 715.143403l63.543756-350.433447A252.478012 252.478012 0 0 1 205.527284 187.937637h0.471393l2.734078-1.508458 1.3199-2.922635 73.914399-161.687749a23.946757 23.946757 0 0 1 41.671129 0l73.725842 128.501692 2.545521 6.222386h164.421827l2.262686-6.222386 73.725842-128.501692A23.7582 23.7582 0 0 1 663.155465 9.65686m0 429.816003a56.567142 56.567142 0 1 0-56.567142-56.567143 56.567142 56.567142 0 0 0 56.567142 56.567143m-358.258568 0a56.567142 56.567142 0 1 0-56.567142-56.567143 56.567142 56.567142 0 0 0 56.567142 56.567143m170.644213-3.205472a33.186057 33.186057 0 0 0-19.515664 7.448007 67.786292 67.786292 0 0 0-17.630093 22.155464c-4.996764 9.427857-10.276364 14.236064-14.613178 14.330343-6.033829 0-14.141786-8.862186-18.007207-15.273128a14.330343 14.330343 0 0 0-12.067657-6.693779 14.5189 14.5189 0 0 0-7.448008 2.074129 14.236064 14.236064 0 0 0-4.431092 19.421385c1.791293 3.016914 18.195764 28.283571 42.519635 28.283572h0.754229c15.17885 0 28.283571-10.182086 38.654213-29.226357a37.711428 37.711428 0 0 1 10.747757-13.670393 4.431093 4.431093 0 0 1 2.262686-1.037064 4.902486 4.902486 0 0 1 1.791293 0.65995 40.539785 40.539785 0 0 1 11.124871 14.047507c10.5592 18.855714 23.569643 28.849243 38.654214 29.226357h0.848507c23.7582 0 39.502721-23.946757 42.425357-28.283572a14.141786 14.141786 0 0 0-4.61965-19.421385 14.801736 14.801736 0 0 0-7.448007-2.074129 14.236064 14.236064 0 0 0-12.067657 6.693779c-3.771143 6.222386-12.350493 15.273128-18.855714 15.273128-3.9597 0-9.427857-5.091043-13.953228-13.764671a66.937785 66.937785 0 0 0-18.855715-23.569643 33.091778 33.091778 0 0 0-18.007207-6.505221h-1.885571M663.155465 0.229003a33.091778 33.091778 0 0 0-29.0378 16.875864L559.92043 146.360787v0.754229H408.22621v-0.754229L333.74614 17.104867a33.280335 33.280335 0 0 0-58.169878 0l-74.102957 162.347698A262.754376 262.754376 0 0 0 68.446242 363.201499L4.713929 713.446389a263.037212 263.037212 0 0 0 113.134284 266.148404c11.784821-17.1587 75.422856-103.706428 158.010884-103.706427H282.835712c59.961171 3.394029 114.359906 53.267392 161.782027 148.017355h66.749228c47.139285-94.278571 101.820856-144.623327 161.782027-148.017355h6.693778c80.136785 0 142.643477 81.645242 157.068099 102.19797a245.124283 245.124283 0 0 0 52.70172-45.536549c4.525371-5.2796 8.767907-10.5592 12.633329-15.8388 208.072805-14.330343 275.576262-102.009413 354.864539-234.187969 50.344757-83.813649 128.501692-151.977056 185.634506-201.756141 41.011178-35.825857 70.708928-61.658185 78.722606-81.739521 9.427857-24.135314 7.825121-47.139285-4.996764-63.072364a60.526842 60.526842 0 0 0-48.930578-20.175614 111.908663 111.908663 0 0 0-17.252979 1.414179 258.229005 258.229005 0 0 0-106.81762 47.799235c-1.225621 0.942786-124.353435 97.484042-161.970584 285.664069-33.186057 165.55317-201.473305 173.47257-233.528019 173.472569h-3.582586a263.979997 263.979997 0 0 0 5.091043-102.669363l-53.361671-350.716282a263.13149 263.13149 0 0 0-129.444477-188.557141 3.9597 3.9597 0 0 0 0-2.545522l-74.480071-162.536255A33.280335 33.280335 0 0 0 663.155465 0.229003z m0 429.816003a47.139285 47.139285 0 1 1 47.139285-47.139286 47.139285 47.139285 0 0 1-47.139285 47.139286z m-358.258568 0a47.139285 47.139285 0 1 1 47.139285-47.139286 47.139285 47.139285 0 0 1-47.139285 47.139286z m118.69672 59.584056h0.754229c7.9194 0 15.461686-6.693779 22.532578-19.421385a59.301221 59.301221 0 0 1 14.896014-18.855714 23.852478 23.852478 0 0 1 14.330343-5.656715 23.286807 23.286807 0 0 1 13.576114 4.713929 57.698485 57.698485 0 0 1 16.027357 19.987057c6.976614 12.350493 14.424621 18.855714 22.249743 18.855714 14.141786 0 26.303721-19.515664 26.398-19.704221a4.902486 4.902486 0 0 1 4.053978-2.262686 4.808207 4.808207 0 0 1 4.053979 7.165171c-0.65995 1.037064-14.707457 24.229593-34.411678 24.229593h-0.65995c-11.501986 0-21.77835-8.485071-30.640536-24.41815a47.139285 47.139285 0 0 0-13.85895-16.781585 13.199 13.199 0 0 0-6.316664-2.074129h-0.471393a13.481836 13.481836 0 0 0-7.070893 2.545522 49.401971 49.401971 0 0 0-13.858949 16.970142c-8.767907 15.933078-18.855714 24.135314-30.640536 24.41815h-0.565671c-19.421386 0-33.846007-23.192528-34.505957-24.229593a4.713929 4.713929 0 1 1 8.013678-4.902485s11.973378 19.704221 26.115164 19.704221z" p-id="10136"></path></svg>